<svg width="188" height="35" viewBox="0 0 188 35" fill="none" xmlns="http://www.w3.org/2000/svg">
<path d="M15.5728 8.01562C15.4535 6.89915 14.9506 6.02983 14.0643 5.40767C13.1864 4.78551 12.0444 4.47443 10.6381 4.47443C9.6495 4.47443 8.80149 4.62358 8.09411 4.92188C7.38672 5.22017 6.84553 5.625 6.47053 6.13636C6.09553 6.64773 5.90376 7.23153 5.89524 7.88778C5.89524 8.43324 6.01882 8.90625 6.26598 9.30682C6.52166 9.70739 6.86683 10.0483 7.30149 10.3295C7.73615 10.6023 8.21768 10.8324 8.74609 11.0199C9.2745 11.2074 9.80717 11.3651 10.3441 11.4929L12.7987 12.1065C13.7873 12.3366 14.7376 12.6477 15.6495 13.0398C16.57 13.4318 17.3924 13.9261 18.1168 14.5227C18.8498 15.1193 19.4293 15.8395 19.8555 16.6832C20.2816 17.527 20.4947 18.5156 20.4947 19.6491C20.4947 21.1832 20.1026 22.5341 19.3185 23.7017C18.5344 24.8608 17.4009 25.7685 15.918 26.4247C14.4435 27.0724 12.658 27.3963 10.5614 27.3963C8.5245 27.3963 6.75604 27.081 5.25604 26.4503C3.76456 25.8196 2.59695 24.8991 1.7532 23.6889C0.917969 22.4787 0.466264 21.0043 0.398082 19.2656H5.06428C5.13246 20.1776 5.41371 20.9361 5.90803 21.5412C6.40234 22.1463 7.04581 22.598 7.83842 22.8963C8.63956 23.1946 9.53445 23.3438 10.5231 23.3438C11.5543 23.3438 12.4577 23.1903 13.2333 22.8835C14.0174 22.5682 14.631 22.1335 15.0742 21.5795C15.5174 21.017 15.7433 20.3608 15.7518 19.6108C15.7433 18.929 15.543 18.3665 15.1509 17.9233C14.7589 17.4716 14.2092 17.0966 13.5018 16.7983C12.8029 16.4915 11.9847 16.2187 11.0472 15.9801L8.06854 15.2131C5.91229 14.6591 4.20774 13.8196 2.9549 12.6946C1.71058 11.5611 1.08842 10.0568 1.08842 8.18182C1.08842 6.6392 1.50604 5.28835 2.34126 4.12926C3.18501 2.97017 4.33132 2.07102 5.78018 1.43182C7.22905 0.78409 8.86967 0.460226 10.7021 0.460226C12.56 0.460226 14.1879 0.78409 15.5856 1.43182C16.9918 2.07102 18.0955 2.96165 18.8967 4.10369C19.6978 5.23721 20.1112 6.54119 20.1367 8.01562H15.5728ZM34.3239 7.36364V10.9432H23.0355V7.36364H34.3239ZM25.8224 2.65909H30.4503V21.0938C30.4503 21.7159 30.544 22.1932 30.7315 22.5256C30.9276 22.8494 31.1832 23.071 31.4986 23.1903C31.8139 23.3097 32.1634 23.3693 32.5469 23.3693C32.8366 23.3693 33.1009 23.348 33.3395 23.3054C33.5866 23.2628 33.7741 23.2244 33.902 23.1903L34.6818 26.8082C34.4347 26.8935 34.081 26.9872 33.6207 27.0895C33.169 27.1918 32.6151 27.2514 31.9588 27.2685C30.7997 27.3026 29.7557 27.1278 28.8267 26.7443C27.8977 26.3523 27.1605 25.7472 26.6151 24.929C26.0781 24.1108 25.8139 23.0881 25.8224 21.8608V2.65909ZM50.7099 18.7415V7.36364H55.3377V27H50.8505V23.5099H50.646C50.2028 24.6094 49.4741 25.5085 48.4599 26.2074C47.4542 26.9062 46.2141 27.2557 44.7397 27.2557C43.4528 27.2557 42.315 26.9702 41.3263 26.3991C40.3462 25.8196 39.5792 24.9801 39.0252 23.8807C38.4712 22.7727 38.1942 21.4347 38.1942 19.8665V7.36364H42.8221V19.1506C42.8221 20.3949 43.163 21.3835 43.8448 22.1165C44.5266 22.8494 45.4215 23.2159 46.5295 23.2159C47.2113 23.2159 47.8718 23.0497 48.511 22.7173C49.1502 22.3849 49.6744 21.8906 50.0835 21.2344C50.5011 20.5696 50.7099 19.7386 50.7099 18.7415ZM67.3835 27.3452C65.8409 27.3452 64.4602 26.9489 63.2415 26.1562C62.0227 25.3636 61.0597 24.2131 60.3523 22.7045C59.6449 21.196 59.2912 19.3636 59.2912 17.2074C59.2912 15.0256 59.6491 13.1847 60.3651 11.6847C61.0895 10.1761 62.0653 9.03835 63.2926 8.27131C64.5199 7.49574 65.8878 7.10795 67.3963 7.10795C68.5469 7.10795 69.4929 7.30398 70.2344 7.69602C70.9759 8.07954 71.5639 8.54403 71.9986 9.08949C72.4332 9.62642 72.7699 10.1335 73.0085 10.6108H73.2003V0.818181H77.8409V27H73.2898V23.9062H73.0085C72.7699 24.3835 72.4247 24.8906 71.973 25.4276C71.5213 25.956 70.9247 26.4077 70.1832 26.7827C69.4418 27.1577 68.5085 27.3452 67.3835 27.3452ZM68.6747 23.5483C69.6548 23.5483 70.4901 23.2841 71.1804 22.7557C71.8707 22.2187 72.3949 21.473 72.7528 20.5185C73.1108 19.5639 73.2898 18.4517 73.2898 17.1818C73.2898 15.9119 73.1108 14.8082 72.7528 13.8707C72.4034 12.9332 71.8835 12.2045 71.1932 11.6847C70.5114 11.1648 69.6719 10.9048 68.6747 10.9048C67.6435 10.9048 66.7827 11.1733 66.0923 11.7102C65.402 12.2472 64.8821 12.9886 64.5327 13.9347C64.1832 14.8807 64.0085 15.9631 64.0085 17.1818C64.0085 18.4091 64.1832 19.5043 64.5327 20.4673C64.8906 21.4219 65.4148 22.1761 66.1051 22.7301C66.804 23.2756 67.6605 23.5483 68.6747 23.5483ZM85.6488 34.3636C85.0181 34.3636 84.4343 34.3125 83.8974 34.2102C83.369 34.1165 82.9471 34.0057 82.6317 33.8778L83.7056 30.2727C84.3789 30.4688 84.9798 30.5625 85.5082 30.554C86.0366 30.5455 86.5011 30.3793 86.9016 30.0554C87.3107 29.7401 87.6559 29.2116 87.9371 28.4702L88.3335 27.4091L81.2127 7.36364H86.1218L90.6474 22.1932H90.8519L95.3903 7.36364H100.312L92.4499 29.3778C92.0835 30.4176 91.5977 31.3082 90.9925 32.0497C90.3874 32.7997 89.646 33.3707 88.7681 33.7628C87.8988 34.1634 86.859 34.3636 85.6488 34.3636ZM103.719 0.818181H109.523L117.296 19.7898H117.603L125.375 0.818181H131.179V27H126.628V9.01278H126.385L119.15 26.9233H115.749L108.513 8.97443H108.27V27H103.719V0.818181ZM141.79 27.3963C140.546 27.3963 139.425 27.1747 138.428 26.7315C137.439 26.2798 136.655 25.6151 136.076 24.7372C135.505 23.8594 135.219 22.777 135.219 21.4901C135.219 20.3821 135.424 19.4659 135.833 18.7415C136.242 18.017 136.8 17.4375 137.507 17.0028C138.215 16.5682 139.012 16.2401 139.898 16.0185C140.793 15.7884 141.718 15.6222 142.672 15.5199C143.823 15.4006 144.756 15.294 145.472 15.2003C146.188 15.098 146.708 14.9446 147.032 14.7401C147.364 14.527 147.53 14.1989 147.53 13.7557V13.679C147.53 12.7159 147.245 11.9702 146.674 11.4418C146.103 10.9134 145.28 10.6491 144.206 10.6491C143.073 10.6491 142.174 10.8963 141.509 11.3906C140.853 11.8849 140.409 12.4687 140.179 13.142L135.858 12.5284C136.199 11.3352 136.762 10.3381 137.546 9.53693C138.33 8.72727 139.289 8.12216 140.422 7.72159C141.556 7.3125 142.809 7.10795 144.181 7.10795C145.127 7.10795 146.069 7.21875 147.006 7.44034C147.944 7.66193 148.8 8.02841 149.576 8.53977C150.351 9.04261 150.973 9.72869 151.442 10.598C151.919 11.4673 152.158 12.554 152.158 13.858V27H147.709V24.3026H147.556C147.275 24.848 146.878 25.3594 146.367 25.8366C145.864 26.3054 145.229 26.6847 144.462 26.9744C143.703 27.2557 142.813 27.3963 141.79 27.3963ZM142.992 23.9957C143.921 23.9957 144.726 23.8125 145.408 23.446C146.09 23.071 146.614 22.5767 146.98 21.9631C147.355 21.3494 147.543 20.6804 147.543 19.956V17.642C147.398 17.7614 147.151 17.8722 146.801 17.9744C146.461 18.0767 146.077 18.1662 145.651 18.2429C145.225 18.3196 144.803 18.3878 144.385 18.4474C143.968 18.5071 143.605 18.5582 143.299 18.6009C142.608 18.6946 141.99 18.848 141.445 19.0611C140.9 19.2741 140.469 19.5724 140.154 19.956C139.838 20.331 139.681 20.8168 139.681 21.4134C139.681 22.2656 139.992 22.9091 140.614 23.3438C141.236 23.7784 142.029 23.9957 142.992 23.9957ZM166.617 7.36364V10.9432H155.328V7.36364H166.617ZM158.115 2.65909H162.743V21.0938C162.743 21.7159 162.837 22.1932 163.025 22.5256C163.221 22.8494 163.476 23.071 163.792 23.1903C164.107 23.3097 164.456 23.3693 164.84 23.3693C165.13 23.3693 165.394 23.348 165.632 23.3054C165.88 23.2628 166.067 23.2244 166.195 23.1903L166.975 26.8082C166.728 26.8935 166.374 26.9872 165.914 27.0895C165.462 27.1918 164.908 27.2514 164.252 27.2685C163.093 27.3026 162.049 27.1278 161.12 26.7443C160.191 26.3523 159.453 25.7472 158.908 24.929C158.371 24.1108 158.107 23.0881 158.115 21.8608V2.65909ZM178.969 27.3835C177.001 27.3835 175.3 26.9744 173.869 26.1562C172.445 25.3295 171.35 24.1619 170.583 22.6534C169.816 21.1364 169.433 19.3509 169.433 17.2969C169.433 15.277 169.816 13.5043 170.583 11.9787C171.359 10.4446 172.441 9.25142 173.83 8.39915C175.219 7.53835 176.852 7.10795 178.727 7.10795C179.937 7.10795 181.079 7.30398 182.153 7.69602C183.235 8.07954 184.19 8.67614 185.016 9.4858C185.852 10.2955 186.508 11.3267 186.985 12.5795C187.462 13.8239 187.701 15.3068 187.701 17.0284V18.4474H171.606V15.3281H183.265C183.256 14.4418 183.065 13.6534 182.69 12.9631C182.315 12.2642 181.79 11.7145 181.117 11.3139C180.452 10.9134 179.677 10.7131 178.79 10.7131C177.844 10.7131 177.013 10.9432 176.298 11.4034C175.582 11.8551 175.023 12.4517 174.623 13.1932C174.231 13.9261 174.031 14.7315 174.022 15.6094V18.3324C174.022 19.4744 174.231 20.4545 174.648 21.2727C175.066 22.0824 175.65 22.7045 176.4 23.1392C177.15 23.5653 178.028 23.7784 179.033 23.7784C179.707 23.7784 180.316 23.6847 180.862 23.4972C181.407 23.3011 181.88 23.0156 182.281 22.6406C182.681 22.2656 182.984 21.8011 183.188 21.2472L187.509 21.733C187.237 22.875 186.717 23.8722 185.95 24.7244C185.191 25.5682 184.219 26.2244 183.035 26.6932C181.85 27.1534 180.495 27.3835 178.969 27.3835Z" fill="#650FA9"/>
</svg>
